<svg width="1200" height="1272" viewBox="0 0 1200 1272" fill="none" xmlns="http://www.w3.org/2000/svg">
<rect width="1200" height="1200" rx="240" fill="black"/>
<mask id="path-2-outside-1_193_6" maskUnits="userSpaceOnUse" x="138" y="60" width="930" height="1062" fill="black">
<rect fill="white" x="138" y="60" width="930" height="1062"/>
<path d="M246.525 1060C228.125 1060 214.925 1052.4 206.925 1037.2C198.925 1022 198.125 1007.2 204.525 992.8L557.325 155.2C566.125 133.6 581.325 122.8 602.925 122.8C623.725 122.8 638.525 133.6 647.325 155.2L1001.33 994C1008.53 1009.2 1007.33 1024 997.725 1038.4C988.925 1052.8 976.125 1060 959.325 1060C949.725 1060 940.925 1057.6 932.925 1052.8C925.725 1048 919.725 1040.8 914.925 1031.2L584.925 230.8H622.125L289.725 1031.2C285.725 1040.8 279.725 1048 271.725 1052.8C264.525 1057.6 256.125 1060 246.525 1060ZM325.725 836.8L361.725 756.4H848.925L884.925 836.8H325.725Z"/>
</mask>
<path d="M246.525 1060C228.125 1060 214.925 1052.4 206.925 1037.2C198.925 1022 198.125 1007.2 204.525 992.8L557.325 155.2C566.125 133.6 581.325 122.8 602.925 122.8C623.725 122.8 638.525 133.6 647.325 155.2L1001.33 994C1008.53 1009.2 1007.33 1024 997.725 1038.4C988.925 1052.8 976.125 1060 959.325 1060C949.725 1060 940.925 1057.6 932.925 1052.8C925.725 1048 919.725 1040.8 914.925 1031.2L584.925 230.8H622.125L289.725 1031.2C285.725 1040.8 279.725 1048 271.725 1052.8C264.525 1057.6 256.125 1060 246.525 1060ZM325.725 836.8L361.725 756.4H848.925L884.925 836.8H325.725Z" fill="black"/>
<path d="M206.925 1037.2L152.06 1066.08L152.06 1066.08L206.925 1037.2ZM204.525 992.8L261.181 1017.98L261.428 1017.43L261.663 1016.87L204.525 992.8ZM557.325 155.2L614.463 179.267L614.605 178.93L614.743 178.592L557.325 155.2ZM647.325 155.2L589.907 178.592L590.053 178.951L590.204 179.307L647.325 155.2ZM1001.33 994L944.204 1018.11L944.722 1019.34L945.293 1020.54L1001.33 994ZM997.725 1038.4L946.138 1004.01L945.459 1005.03L944.822 1006.07L997.725 1038.4ZM932.925 1052.8L898.534 1104.39L899.761 1105.21L901.026 1105.96L932.925 1052.8ZM914.925 1031.2L857.606 1054.83L858.464 1056.91L859.471 1058.93L914.925 1031.2ZM584.925 230.8V168.8H492.3L527.606 254.432L584.925 230.8ZM622.125 230.8L679.384 254.579L715.007 168.8H622.125V230.8ZM289.725 1031.2L346.956 1055.05L346.97 1055.01L346.984 1054.98L289.725 1031.2ZM271.725 1052.8L239.826 999.635L238.561 1000.39L237.334 1001.21L271.725 1052.8ZM325.725 836.8L269.139 811.463L230.032 898.8H325.725V836.8ZM361.725 756.4V694.4H321.555L305.139 731.063L361.725 756.4ZM848.925 756.4L905.511 731.063L889.095 694.4H848.925V756.4ZM884.925 836.8V898.8H980.618L941.511 811.463L884.925 836.8ZM246.525 1060V998C245.927 998 249.172 997.927 253.761 1000.57C258.586 1003.35 261.043 1006.91 261.79 1008.32L206.925 1037.2L152.06 1066.08C160.807 1082.69 173.864 1097.65 191.889 1108.03C209.678 1118.27 228.723 1122 246.525 1122V1060ZM206.925 1037.2L261.79 1008.32C261.292 1007.38 262.082 1008.53 262.235 1011.35C262.307 1012.7 262.211 1014.07 261.965 1015.35C261.722 1016.62 261.389 1017.51 261.181 1017.98L204.525 992.8L147.869 967.619C132.999 1001.08 136.133 1035.81 152.06 1066.08L206.925 1037.2ZM204.525 992.8L261.663 1016.87L614.463 179.267L557.325 155.2L500.187 131.133L147.387 968.733L204.525 992.8ZM557.325 155.2L614.743 178.592C615.81 175.974 615.386 178.493 611.236 181.441C609.265 182.841 607.199 183.783 605.384 184.316C603.65 184.825 602.7 184.8 602.925 184.8V122.8V60.8C581.362 60.8 559.1 66.3712 539.414 80.3588C520.064 94.1074 507.64 112.826 499.907 131.808L557.325 155.2ZM602.925 122.8V184.8C602.738 184.8 601.43 184.771 599.401 184.155C597.297 183.516 595.085 182.447 593.078 180.983C588.953 177.973 588.679 175.578 589.907 178.592L647.325 155.2L704.743 131.808C697.171 113.222 685.097 94.6271 666.172 80.8169C646.755 66.6479 624.61 60.8 602.925 60.8V122.8ZM647.325 155.2L590.204 179.307L944.204 1018.11L1001.33 994L1058.45 969.893L704.446 131.093L647.325 155.2ZM1001.33 994L945.293 1020.54C944.867 1019.64 943.637 1016.31 944.028 1011.49C944.207 1009.28 944.682 1007.42 945.2 1006.02C945.702 1004.66 946.15 1003.99 946.138 1004.01L997.725 1038.4L1049.31 1072.79C1070.56 1040.91 1074.21 1003.03 1057.36 967.459L1001.33 994ZM997.725 1038.4L944.822 1006.07C945.113 1005.59 946.996 1002.89 951.129 1000.56C955.275 998.23 958.631 998 959.325 998V1060V1122C997.844 1122 1030.63 1103.46 1050.63 1070.73L997.725 1038.4ZM959.325 1060V998C959.747 998 960.65 998.061 961.838 998.385C963.038 998.712 964.069 999.183 964.824 999.635L932.925 1052.8L901.026 1105.96C918.951 1116.72 938.83 1122 959.325 1122V1060ZM932.925 1052.8L967.316 1001.21C969.072 1002.38 970.153 1003.51 970.655 1004.11C971.12 1004.67 970.944 1004.6 970.38 1003.47L914.925 1031.2L859.471 1058.93C867.948 1075.88 880.438 1092.32 898.534 1104.39L932.925 1052.8ZM914.925 1031.2L972.244 1007.57L642.244 207.168L584.925 230.8L527.606 254.432L857.606 1054.83L914.925 1031.2ZM584.925 230.8V292.8H622.125V230.8V168.8H584.925V230.8ZM622.125 230.8L564.866 207.021L232.466 1007.42L289.725 1031.2L346.984 1054.98L679.384 254.579L622.125 230.8ZM289.725 1031.2L232.494 1007.35C232.624 1007.04 233.21 1005.77 234.595 1004.11C236.026 1002.39 237.836 1000.83 239.826 999.635L271.725 1052.8L303.624 1105.96C324.279 1093.57 338.474 1075.4 346.956 1055.05L289.725 1031.2ZM271.725 1052.8L237.334 1001.21C239.121 1000.02 241.086 999.13 242.992 998.586C244.849 998.055 246.128 998 246.525 998V1060V1122C266.974 1122 287.633 1116.71 306.116 1104.39L271.725 1052.8ZM325.725 836.8L382.311 862.137L418.311 781.737L361.725 756.4L305.139 731.063L269.139 811.463L325.725 836.8ZM361.725 756.4V818.4H848.925V756.4V694.4H361.725V756.4ZM848.925 756.4L792.339 781.737L828.339 862.137L884.925 836.8L941.511 811.463L905.511 731.063L848.925 756.4ZM884.925 836.8V774.8H325.725V836.8V898.8H884.925V836.8Z" fill="#50F160" mask="url(#path-2-outside-1_193_6)"/>
</svg>
